<svg version="1.1" id="Layer_1" xmlns="http://www.w3.org/2000/svg" xmlns:xlink="http://www.w3.org/1999/xlink" x="0px" y="0px"
	 width="100%" viewBox="0 0 528 528" enable-background="new 0 0 528 528" xml:space="preserve">
<path fill="#000000" opacity="1.000000" stroke="none" 
	d="
M529.000000,239.000000 
	C529.000000,255.020889 529.000000,271.041779 528.999512,287.933685 
	C526.886841,305.924591 524.310791,322.941498 519.393005,339.546570 
	C510.569763,369.338623 496.895966,396.736023 478.370758,421.592987 
	C464.613617,440.052246 448.407227,456.317139 430.387421,470.654388 
	C404.747284,491.054718 376.149353,506.046509 344.723877,515.246826 
	C315.883026,523.690430 286.443573,527.331116 256.251648,525.588745 
	C239.451294,524.619141 222.952194,522.353271 206.563705,518.901001 
	C164.981583,510.141693 129.450500,489.470581 97.932076,461.836060 
	C78.798958,445.060577 62.096027,425.921631 48.598347,404.041901 
	C25.735348,366.980957 12.485046,326.847656 9.842698,283.505127 
	C8.499338,261.469971 9.361733,239.355988 13.579913,217.476669 
	C18.236137,193.325272 25.811815,170.180542 36.841591,148.260498 
	C45.754498,130.547394 56.863728,114.228996 69.555267,98.902313 
	C85.052292,80.187653 102.930481,64.224876 122.878754,50.534615 
	C144.684402,35.569656 168.338318,24.426371 193.642303,16.625475 
	C214.876068,10.079380 236.660004,6.950832 258.701904,5.728931 
	C275.293182,4.809187 291.874084,6.082613 308.347504,8.528892 
	C337.437561,12.848718 365.416077,20.297815 391.309387,34.938076 
	C423.959503,53.398705 452.469116,76.552986 475.495667,106.251152 
	C497.586304,134.742142 512.911011,166.555344 521.890381,201.451920 
	C525.071838,213.816040 526.534485,226.502197 529.000000,239.000000 
M256.500305,199.405212 
	C246.856735,199.435333 237.213730,199.221420 227.595703,200.368088 
	C223.870438,200.812210 221.895615,202.469986 221.384598,206.205368 
	C219.350082,221.076904 220.302719,236.075821 219.623932,251.003906 
	C218.506485,275.579315 219.922287,300.200684 221.378693,324.773041 
	C221.650589,329.360199 223.731567,331.388000 228.763885,331.582092 
	C234.235992,331.793091 239.724457,332.242340 245.158463,332.402222 
	C267.117371,333.048401 289.097198,332.830353 311.042542,331.520813 
	C314.436462,331.318298 317.423950,329.825226 317.508881,325.903839 
	C317.595642,321.895874 318.602997,317.936737 318.497253,314.014526 
	C318.110779,299.684265 319.407593,285.416992 319.711517,271.115997 
	C320.026642,256.287415 318.229980,241.529800 318.690765,226.727142 
	C318.904266,219.869919 317.810364,213.138809 317.551117,206.336334 
	C317.417267,202.824615 315.330994,200.586685 311.896240,200.538315 
	C306.068115,200.456223 300.366669,199.198517 294.498322,199.329300 
	C282.171204,199.604050 269.833618,199.408035 256.500305,199.405212 
M140.830414,209.370605 
	C134.986511,210.459595 129.124466,211.461349 123.306015,212.672623 
	C120.173645,213.324738 117.831924,214.984940 117.436821,218.563324 
	C115.907875,232.410690 114.801018,246.304077 114.454712,260.217163 
	C114.041687,276.810852 115.206963,293.360016 117.302353,309.842194 
	C118.230728,317.144714 119.148796,318.114441 126.553871,319.691498 
	C142.598251,323.108429 158.835617,325.356445 175.082977,327.364777 
	C184.264175,328.499664 193.506683,329.780762 202.819031,329.586426 
	C207.482010,329.489136 210.023499,326.686829 209.536209,322.278198 
	C207.929413,307.740845 208.335114,293.116241 207.755493,278.538544 
	C207.108582,262.268982 207.505966,245.961060 208.606323,229.688858 
	C209.064911,222.907013 208.192169,216.106461 209.449615,209.294678 
	C210.440887,203.924820 206.745544,201.206421 201.256256,201.910980 
	C193.045700,202.964828 184.776749,203.558350 176.537338,204.393936 
	C164.838943,205.580338 153.189560,207.125412 140.830414,209.370605 
M330.372498,223.516251 
	C330.409241,231.317307 330.826141,239.096130 331.216156,246.889282 
	C332.388916,270.322998 330.176300,293.752350 330.333221,317.199158 
	C330.339813,318.183990 330.154907,319.181763 329.962280,320.154327 
	C328.561646,327.226685 330.521179,329.772278 337.881622,329.575409 
	C347.985809,329.305054 357.994385,327.854034 368.030579,326.707306 
	C383.670349,324.920349 399.165710,322.281281 414.608643,319.320068 
	C417.904114,318.688202 421.188599,317.202576 421.533447,313.142944 
	C422.640686,300.107483 424.024933,287.076172 424.527100,274.013397 
	C425.235413,255.588242 423.417480,237.238922 421.618927,218.912109 
	C421.271393,215.371109 419.327881,213.473114 416.083405,212.791351 
	C398.424927,209.080948 380.622437,206.259781 362.673920,204.395020 
	C354.441498,203.539749 346.169708,203.009781 337.967377,201.937332 
	C332.326111,201.199753 328.495911,204.127945 329.575043,209.630630 
	C330.422852,213.953781 330.227936,218.222961 330.372498,223.516251 
M280.062195,469.487946 
	C283.447815,468.257385 286.978516,468.586548 290.454590,468.653870 
	C294.706238,468.736237 297.301086,467.030731 298.445038,462.793823 
	C304.549347,440.184235 308.580994,417.178040 311.567963,393.985107 
	C313.366211,380.022064 314.973969,366.035248 315.824585,351.961792 
	C316.213501,345.527069 314.921722,343.760803 308.416199,343.356842 
	C303.042297,343.023132 297.841644,344.412872 292.522339,344.408661 
	C277.198639,344.396454 261.874664,344.462189 246.551422,344.378235 
	C240.581512,344.345520 234.684845,343.009247 228.662674,343.356689 
	C224.702713,343.585114 222.409103,345.844299 222.773743,349.285950 
	C223.177612,353.097687 223.045944,356.913391 223.480591,360.691711 
	C225.806931,380.914551 227.913925,401.171875 231.442047,421.231873 
	C233.882050,435.105194 236.597610,448.930389 240.483139,462.495422 
	C241.485428,465.994537 243.188995,468.504059 247.252121,468.607819 
	C257.878052,468.879120 268.471375,470.224548 280.062195,469.487946 
M238.703796,75.953911 
	C234.215942,93.646492 230.992477,111.597748 228.476547,129.648880 
	C226.099762,146.701614 224.065018,163.811539 223.000473,181.021072 
	C222.697296,185.922073 225.238754,188.948578 230.247375,188.535507 
	C231.889038,188.400131 233.509705,187.667175 235.132156,187.693344 
	C259.575317,188.087173 284.041443,186.513428 308.464783,188.507446 
	C312.693207,188.852692 316.809387,186.179199 316.239258,182.743286 
	C315.576935,178.751968 316.019989,174.766479 315.482727,170.831345 
	C313.401642,155.587952 312.055237,140.260788 309.766846,125.032997 
	C306.908356,106.011398 303.160736,87.201706 298.480011,68.561081 
	C297.753052,65.665932 295.930298,63.822636 292.987213,63.514416 
	C277.410309,61.883118 261.820770,61.827625 246.240662,63.489853 
	C243.297913,63.803814 241.374496,65.550262 240.594315,68.402573 
	C239.982086,70.640907 239.523804,72.921349 238.703796,75.953911 
M388.733429,108.555275 
	C385.398102,101.471550 381.102112,94.938103 377.217865,88.167770 
	C373.978760,82.521904 369.399811,79.611198 363.412628,77.678757 
	C349.019012,73.033012 334.404480,69.401703 319.553680,66.594604 
	C314.915894,65.717979 310.630188,68.775421 312.169220,74.335938 
	C315.036591,84.695602 317.061462,95.315079 318.946930,105.913589 
	C321.730164,121.558578 323.916962,137.301437 325.401276,153.133881 
	C326.359894,163.358597 327.388000,173.576950 328.423004,183.794296 
	C328.751495,187.037170 330.749817,188.899963 333.824738,189.480026 
	C336.587982,190.001282 339.396301,190.400665 342.201599,190.563446 
	C365.066559,191.890091 387.677185,195.153122 410.172668,199.330597 
	C415.723450,200.361389 418.478943,197.512787 417.310974,191.897522 
	C411.334778,163.165649 402.847137,135.287231 388.733429,108.555275 
M175.535751,339.395630 
	C160.249100,337.521332 144.962616,335.648529 129.834366,332.691132 
	C123.377182,331.428772 120.466629,334.268188 121.898766,340.547882 
	C123.667702,348.304352 125.354507,356.089264 127.451088,363.759583 
	C135.478607,393.128357 147.012070,420.975555 163.706528,446.571838 
	C165.536484,449.377563 167.767517,451.184204 170.872604,452.350830 
	C186.928787,458.383240 203.615524,461.994659 220.358459,465.379303 
	C224.944473,466.306335 227.765594,462.983307 226.761444,458.239166 
	C224.394501,447.056396 221.721176,435.926422 219.756607,424.672943 
	C215.367798,399.532806 212.890381,374.143066 210.677490,348.734924 
	C210.327515,344.716400 208.658035,342.691589 204.614151,342.311127 
	C195.216949,341.427094 185.834717,340.383636 175.535751,339.395630 
M221.481552,98.189293 
	C222.774994,90.323624 224.490417,82.553482 226.526108,74.844025 
	C228.176575,68.593407 225.338715,65.685318 219.067581,66.700394 
	C208.894699,68.347023 198.872971,70.727455 188.996689,73.547348 
	C177.175156,76.922638 164.392517,79.079124 158.823090,92.642578 
	C157.380051,96.156898 155.150055,99.345581 153.312531,102.700821 
	C138.009995,130.642746 127.970779,160.444489 121.847786,191.637924 
	C120.592567,198.032593 122.980965,200.407227 129.376083,199.150497 
	C144.340973,196.209763 159.439285,194.155380 174.607101,192.603607 
	C184.657562,191.575363 194.715088,190.615356 204.762436,189.558105 
	C208.148331,189.201843 210.243851,187.348282 210.595062,183.822891 
	C211.596985,173.765396 212.657089,163.713211 213.577820,153.648270 
	C215.254990,135.314178 218.006546,117.135010 221.481552,98.189293 
M384.517059,431.092194 
	C400.189850,403.331482 410.182343,373.501984 416.619141,342.409546 
	C418.568451,332.993774 416.852875,331.618500 407.179962,333.205200 
	C391.811066,335.726288 376.432098,338.187164 360.892426,339.516907 
	C352.148102,340.265106 343.443695,341.470276 334.705048,342.297729 
	C330.117249,342.732117 328.614258,345.254730 328.293030,349.571960 
	C327.469513,360.640381 326.571503,371.715607 325.232758,382.730896 
	C322.153015,408.072327 318.254547,433.285736 312.288086,458.139435 
	C311.010254,463.462158 313.923492,466.228333 319.411652,465.186096 
	C333.108551,462.585052 346.723816,459.558167 359.950836,455.183411 
	C365.734375,453.270538 372.441162,452.431183 375.811798,445.894318 
	C378.318970,441.032013 381.305725,436.417023 384.517059,431.092194 
M445.138794,206.990814 
	C465.659698,212.712311 485.856293,219.230270 504.223389,230.416763 
	C506.061890,231.536499 508.147919,233.386200 510.629517,231.560944 
	C513.204834,229.666733 513.119751,226.966293 512.429321,224.310165 
	C504.665070,194.441086 489.806580,168.371979 469.279114,145.564316 
	C451.569366,125.887344 430.792084,109.927765 407.659424,97.047554 
	C405.442169,95.812996 403.211243,94.417816 400.820374,96.616280 
	C398.564392,98.690681 399.078888,100.939865 400.315765,103.407631 
	C414.703400,132.113297 424.389282,162.418152 429.813568,193.987122 
	C431.111755,201.542633 434.129517,205.343277 441.437012,206.142517 
	C442.421539,206.250198 443.386749,206.534576 445.138794,206.990814 
M505.747070,300.477814 
	C501.839752,302.676086 498.029388,305.072723 494.008362,307.038391 
	C476.333496,315.678772 457.733276,321.766571 438.633392,326.263458 
	C433.460846,327.481323 431.125854,330.021210 430.312744,335.171692 
	C427.984161,349.921906 424.523224,364.439240 420.096252,378.705200 
	C414.771637,395.863800 408.313385,412.576416 400.030121,428.551880 
	C398.963531,430.608917 398.808838,432.775421 400.498810,434.604645 
	C402.239227,436.488434 404.339966,436.273621 406.449799,435.209778 
	C407.638855,434.610260 408.842377,434.032501 409.993561,433.365875 
	C437.735382,417.300446 462.061615,397.317902 481.306305,371.445129 
	C495.753021,352.022827 506.312439,330.735474 512.452881,307.306091 
	C513.937500,301.641357 511.894379,299.380798 505.747070,300.477814 
M122.584061,389.647156 
	C116.258858,372.120819 111.878723,354.075226 108.754662,335.746521 
	C107.854942,330.467957 105.839531,327.605804 100.419273,326.271851 
	C77.625969,320.662262 55.347389,313.568481 34.938187,301.567535 
	C32.884293,300.359833 30.852587,298.396118 28.144848,300.474335 
	C25.271702,302.679474 26.082893,305.454865 26.804008,308.206390 
	C31.777731,327.184479 39.729698,344.865814 50.569950,361.178711 
	C61.463673,377.572083 74.250275,392.282135 89.277580,405.162903 
	C102.225853,416.261597 116.158577,425.780365 130.861389,434.270477 
	C133.091187,435.558075 135.629044,437.242584 138.219574,434.929169 
	C140.812302,432.613861 139.458527,430.112915 138.304306,427.651184 
	C132.589951,415.463318 127.030235,403.209930 122.584061,389.647156 
M83.685425,210.004791 
	C89.761375,208.313019 95.798103,206.457886 101.926842,204.985886 
	C106.130730,203.976196 107.974136,201.396561 108.587555,197.363327 
	C110.937706,181.911179 114.713600,166.800217 119.361176,151.879578 
	C124.564957,135.173264 130.758423,118.880173 138.730774,103.289276 
	C139.870270,101.060852 140.504349,98.934044 138.508713,96.870239 
	C136.688522,94.987862 134.742020,95.247055 132.609436,96.407188 
	C116.055099,105.412712 100.604393,116.067093 86.632072,128.664032 
	C65.405869,147.800781 48.237164,170.069458 36.424484,196.277298 
	C32.310646,205.404312 29.249212,214.878235 26.569504,224.488586 
	C25.894810,226.908264 25.603512,229.440384 27.913345,231.408493 
	C30.352198,233.486542 32.254635,231.460159 34.298023,230.625916 
	C35.058598,230.315369 35.716667,229.762375 36.444550,229.361862 
	C51.213398,221.235504 66.579422,214.563995 83.685425,210.004791 
M461.751160,225.015213 
	C455.576874,223.079865 449.429779,221.051468 443.220886,219.234421 
	C436.560059,217.285110 434.151947,219.019363 434.429596,226.033646 
	C434.875031,237.286301 435.883789,248.516739 436.323090,259.769501 
	C436.939087,275.550293 435.170013,291.254791 434.442230,306.993835 
	C434.170959,312.859894 436.627014,314.406250 442.213135,312.827362 
	C451.791687,310.120056 461.354309,307.318909 470.589355,303.618103 
	C485.091736,297.806488 499.557159,291.860870 510.607117,280.089325 
	C522.404297,267.521729 518.334106,258.018524 508.562927,249.190430 
	C495.421234,237.317154 479.253662,230.562820 461.751160,225.015213 
M104.500900,222.337967 
	C103.377853,218.220657 100.245308,217.823502 96.976784,218.801285 
	C73.543030,225.811462 49.705910,232.344330 30.808914,248.901016 
	C19.965120,258.401855 17.554928,267.427856 27.092859,278.685089 
	C32.528652,285.100739 39.335487,289.799438 46.741196,293.790710 
	C62.351158,302.203552 78.969688,307.860229 95.969933,312.601501 
	C102.430908,314.403381 104.826614,312.949341 104.569542,306.195923 
	C104.109093,294.099457 102.785889,282.052643 102.575256,269.928345 
	C102.303535,254.287506 103.950073,238.750183 104.500900,222.337967 
M418.258362,442.926971 
	C408.593964,448.466980 398.669800,453.509583 388.375824,457.752502 
	C384.316040,459.425842 380.396545,461.086517 377.636261,464.640442 
	C371.113464,473.038666 364.268951,481.149139 356.600372,488.538513 
	C354.816711,490.257172 353.520844,492.138062 355.197632,494.668365 
	C356.875854,497.200958 358.889038,497.275909 361.654175,496.185181 
	C373.281738,491.598541 384.371704,485.958344 395.129578,479.640747 
	C409.330353,471.301147 422.629761,461.647522 434.888977,450.700409 
	C443.683136,442.847443 451.907806,434.332947 459.463409,425.232910 
	C460.956268,423.434814 461.592773,421.418365 459.855225,419.356049 
	C458.057953,417.222717 455.962128,417.022797 453.653046,418.515503 
	C452.816895,419.056030 451.897461,419.496857 451.147461,420.137115 
	C441.139069,428.680695 430.079529,435.708435 418.258362,442.926971 
M138.327866,476.124969 
	C150.388733,483.881714 163.081665,490.400848 176.368744,495.802277 
	C179.218369,496.960754 181.720947,497.900024 183.742767,494.673615 
	C185.688126,491.569275 183.500244,489.690155 181.601181,487.818268 
	C174.604141,480.921234 168.235596,473.486206 162.235580,465.711823 
	C159.662399,462.377655 156.387573,459.951630 152.346741,458.381134 
	C140.392761,453.735077 129.064774,447.804504 118.009125,441.307129 
	C106.656685,434.635284 96.070366,426.888062 85.656082,418.882477 
	C83.472694,417.204071 81.438751,416.957184 79.454720,419.025238 
	C77.458168,421.106323 77.830566,423.221313 79.575508,425.261902 
	C81.730621,427.782166 83.802444,430.382050 86.075294,432.791870 
	C101.547401,449.196442 118.537544,463.786163 138.327866,476.124969 
M142.326492,52.934326 
	C135.449844,57.587254 128.422958,62.034870 121.726898,66.934570 
	C106.368439,78.172791 92.791588,91.348076 80.404419,105.774841 
	C78.379684,108.132957 76.954109,110.452766 79.681175,113.154518 
	C82.367630,115.816032 84.421722,113.865128 86.590202,112.153801 
	C106.530823,96.416977 127.908157,83.099670 151.533386,73.540497 
	C154.878540,72.187004 158.390793,71.031952 160.733597,67.855522 
	C166.957748,59.416664 173.814850,51.520184 181.420410,44.283009 
	C183.499802,42.304348 185.897430,40.070492 183.994965,36.993351 
	C181.915009,33.629093 178.783142,35.080223 175.957336,36.191181 
	C164.488022,40.700356 153.634018,46.448856 142.326492,52.934326 
M422.642212,70.889412 
	C421.181671,69.793480 419.719818,68.699249 418.260742,67.601364 
	C401.174713,54.744843 382.712128,44.301041 362.963318,36.129162 
	C360.365631,35.054276 357.424896,33.620506 355.276703,36.648838 
	C352.930389,39.956497 355.466125,42.208725 357.637543,44.330643 
	C363.706146,50.260975 369.686310,56.279522 374.566010,63.257305 
	C378.520508,68.912010 383.908386,72.272491 390.266968,74.826614 
	C400.281250,78.849167 409.867371,83.837059 419.199646,89.320374 
	C431.122559,96.325851 442.455139,104.144791 453.131348,112.915588 
	C455.249878,114.655991 457.214905,115.163841 459.285889,113.100479 
	C461.270172,111.123520 461.241241,109.065765 459.411438,106.913818 
	C457.801514,105.020378 456.515717,102.823318 454.768585,101.079079 
	C444.531952,90.859360 434.756622,80.141876 422.642212,70.889412 
M249.596115,42.040146 
	C247.885666,48.102009 248.687958,50.414536 253.165131,50.508930 
	C263.971008,50.736763 274.787231,50.708988 285.594452,50.515305 
	C289.612305,50.443298 291.203949,47.953468 289.884003,44.097385 
	C286.897827,35.373714 282.623352,27.393909 275.703094,21.047699 
	C271.144592,16.867311 267.781342,16.975079 263.115692,21.042036 
	C256.754272,26.587116 253.620697,34.133801 249.596115,42.040146 
M256.574310,502.980927 
	C258.203125,505.066681 259.667358,507.310516 261.491028,509.209106 
	C267.407532,515.368591 271.432678,515.444458 277.458893,509.247406 
	C283.580292,502.952576 287.273865,495.131195 290.190338,486.983612 
	C291.398621,483.608185 288.002380,480.382477 283.982635,480.773773 
	C274.226959,481.723450 264.484863,481.771973 254.729309,480.721649 
	C250.332718,480.248291 247.683868,483.876770 249.213409,488.103424 
	C251.024979,493.109344 253.157089,497.962097 256.574310,502.980927 
M197.113129,473.156250 
	C194.180862,471.993988 192.143936,473.307953 191.046448,475.843262 
	C189.942413,478.393677 191.467484,480.198730 193.498566,481.696747 
	C194.826080,482.675842 195.967361,483.903198 197.237793,484.964600 
	C208.753693,494.585876 221.090057,502.812958 235.415070,507.761108 
	C237.765228,508.572937 239.494705,508.399109 241.238663,506.607849 
	C243.020370,504.777863 242.323135,503.087921 241.492615,501.158844 
	C239.071960,495.536346 236.686813,489.894714 234.473267,484.188568 
	C233.361420,481.322449 231.628891,479.027374 228.611816,478.689911 
	C218.249207,477.530945 208.096146,475.263702 197.113129,473.156250 
M335.653442,41.880966 
	C326.031860,34.374733 315.646545,28.242840 304.129730,24.065739 
	C301.615448,23.153818 299.590729,23.359289 297.795349,25.308186 
	C295.978668,27.280239 296.705811,29.291758 297.781128,31.292419 
	C300.464600,36.285061 302.624115,41.517620 304.267792,46.920082 
	C305.438690,50.768745 307.905823,52.899212 311.661499,53.371269 
	C321.694244,54.632309 331.622742,56.436752 341.488678,58.617298 
	C344.150726,59.205654 346.650940,58.973892 347.959351,56.311363 
	C349.198181,53.790321 347.574707,51.723141 345.847931,50.185452 
	C342.754730,47.430931 339.409180,44.959717 335.653442,41.880966 
M306.440826,480.868744 
	C303.295837,488.003143 300.038177,495.090942 297.057495,502.293335 
	C295.739288,505.478607 298.610840,508.705475 302.042877,508.154816 
	C303.339020,507.946869 304.593414,507.417023 305.837372,506.954590 
	C321.208740,501.240173 334.106750,491.633362 346.366852,481.057831 
	C347.884064,479.749054 349.155121,477.893524 347.991455,475.767334 
	C346.822083,473.630798 345.138885,472.216400 342.290039,472.844604 
	C335.332397,474.378845 328.352814,475.825684 321.351135,477.143555 
	C316.514404,478.053894 311.370728,477.530823 306.440826,480.868744 
M212.577560,35.213318 
	C205.931503,39.037792 200.455261,44.406860 194.414902,49.029720 
	C192.162750,50.753349 189.746964,52.996078 191.101547,56.122887 
	C192.623688,59.636536 195.999268,58.885696 198.969025,58.267639 
	C208.036453,56.380539 217.080994,54.404572 226.329468,53.527771 
	C230.438721,53.138199 233.410629,51.218887 234.697021,46.900345 
	C236.308777,41.489510 238.561157,36.301514 241.228058,31.309902 
	C242.295654,29.311674 243.040588,27.258923 241.283905,25.302877 
	C239.534973,23.355457 237.519028,23.186796 234.973587,24.073267 
	C227.253448,26.761852 220.059372,30.440697 212.577560,35.213318 
z"/>
</svg>